<svg xmlns="http://www.w3.org/2000/svg" width="499" height="499" viewBox="0 0 499 499">
<g>
<path d="M 328.50 197.11 C324.89,198.77 321.52,198.96 294.14,198.98 L 263.78 199.00 L 264.40 177.25 C264.74,165.29 265.29,149.20 265.62,141.50 L 266.23 127.50 L 270.36 125.50 C273.35,124.06 275.68,121.69 278.74,117.00 C287.28,103.91 287.94,103.18 293.77,100.31 L 299.50 97.50 L 435.05 96.93 L 434.40 99.72 C431.81,110.70 423.71,120.09 413.54,123.90 C406.25,126.63 390.55,127.78 352.66,128.36 C328.06,128.74 321.66,129.43 324.80,131.38 C325.34,131.71 334.04,132.43 344.14,132.97 C403.52,136.19 405.00,136.31 405.00,138.03 C405.00,142.17 395.13,153.34 388.38,156.83 C381.38,160.46 368.49,159.89 337.26,154.59 C328.88,153.16 320.85,152.00 319.43,152.00 C314.74,152.00 317.43,154.39 324.07,156.13 C327.61,157.05 336.58,159.41 344.00,161.36 C351.42,163.31 360.20,165.62 363.50,166.48 C366.80,167.35 369.91,168.18 370.42,168.33 C370.93,168.49 369.65,170.49 367.57,172.79 C356.94,184.56 347.32,185.21 320.50,175.96 C314.18,173.78 308.34,172.00 307.51,172.00 C303.52,172.00 307.27,174.62 321.25,181.61 C329.64,185.80 336.69,189.40 336.92,189.62 C337.82,190.45 332.30,195.35 328.50,197.11 ZM 233.65 189.25 L 234.26 199.00 L 205.88 198.90 C188.98,198.84 176.16,198.37 174.20,197.74 C172.38,197.16 169.06,195.05 166.81,193.06 L 162.73 189.43 L 178.37 181.71 C192.28,174.84 196.50,172.00 192.83,172.00 C192.18,172.00 184.64,174.30 176.08,177.12 C164.29,180.99 159.02,182.24 154.43,182.24 C145.20,182.25 137.18,178.21 131.94,170.89 L 130.07 168.29 L 138.78 166.05 C146.80,163.99 165.21,158.82 175.95,155.62 C180.53,154.25 182.62,152.00 179.31,152.00 C178.29,152.00 170.94,153.15 162.97,154.56 C138.94,158.81 127.36,160.00 121.06,158.85 C112.10,157.23 103.77,151.33 98.36,142.77 C94.35,136.43 94.42,136.38 110.25,135.64 C157.17,133.45 175.05,131.71 172.90,129.56 C172.64,129.31 156.01,128.63 135.95,128.05 C98.82,126.99 92.42,126.29 84.70,122.38 C76.09,118.03 69.73,110.46 67.46,101.87 L 66.16 96.93 L 132.33 97.22 C197.04,97.49 198.60,97.55 203.00,99.59 C208.04,101.93 212.30,106.50 218.09,115.80 C220.80,120.14 223.53,123.03 226.87,125.11 L 231.73 128.13 L 232.38 153.81 C232.74,167.94 233.31,183.89 233.65,189.25 ZM 407.46 355.01 C400.00,356.92 381.59,358.29 375.50,357.39 C356.31,354.57 341.78,348.35 329.60,337.76 L 325.69 334.37 L 333.10 323.72 C337.17,317.87 340.96,313.06 341.52,313.04 C342.08,313.02 345.68,315.29 349.52,318.10 C358.43,324.61 363.88,327.34 372.04,329.36 C382.68,332.01 389.82,332.39 396.33,330.68 C406.99,327.88 412.00,322.76 412.00,314.67 C412.00,305.46 407.23,302.72 378.63,295.52 C357.42,290.18 348.23,286.11 340.72,278.72 C334.59,272.69 332.32,268.37 330.84,259.96 C326.97,237.98 342.19,218.44 367.71,212.63 C383.75,208.99 406.96,211.08 421.35,217.47 C427.20,220.06 438.34,227.13 439.47,228.96 C439.94,229.70 428.93,245.95 425.02,250.30 C424.62,250.74 421.42,249.19 417.90,246.85 C414.38,244.51 407.76,241.30 403.19,239.73 C383.02,232.77 361.00,237.83 361.00,249.42 C361.00,258.80 365.67,261.72 390.68,267.95 C399.58,270.17 409.76,273.04 413.30,274.32 C426.66,279.17 435.27,286.19 439.90,296.00 C442.21,300.90 442.50,302.71 442.48,312.50 C442.46,322.76 442.24,323.96 439.27,330.27 C433.44,342.67 422.52,351.16 407.46,355.01 ZM 118.57 355.44 C109.75,357.74 96.72,358.17 87.50,356.47 C78.72,354.86 64.95,348.70 61.21,344.72 L 58.94 342.30 L 62.31 336.40 C68.80,325.02 71.50,321.00 72.61,321.00 C73.23,321.00 74.87,321.89 76.26,322.99 C82.11,327.59 89.07,330.19 96.85,330.69 C103.80,331.13 105.00,330.91 110.00,328.34 C114.74,325.89 115.92,324.67 118.50,319.50 L 121.50 313.50 L 121.79 263.25 L 122.09 213.00 L 152.00 213.00 L 152.00 264.45 C152.00,298.15 151.62,317.73 150.89,321.20 C147.30,338.43 135.37,351.06 118.57,355.44 ZM 282.18 351.38 C277.16,354.56 276.43,354.56 272.06,351.47 C270.16,350.13 266.67,348.24 264.31,347.27 C258.16,344.74 258.36,341.70 265.04,336.07 C271.25,330.82 272.83,328.47 273.88,322.88 L 274.70 318.50 L 275.85 321.32 C278.30,327.31 276.57,337.50 272.30,342.22 C271.41,343.21 271.01,344.34 271.42,344.75 C272.66,346.00 279.77,337.48 280.91,333.38 C283.54,323.93 281.36,315.54 274.49,308.69 C267.43,301.64 256.95,297.53 233.35,292.57 C204.41,286.49 190.73,280.71 179.94,270.01 C176.30,266.40 172.38,261.34 171.13,258.64 C162.60,240.16 168.63,222.43 186.50,213.50 C192.17,210.67 193.16,210.50 204.50,210.50 C217.50,210.51 218.10,210.69 225.39,216.76 C227.86,218.82 230.90,221.21 232.13,222.09 C234.18,223.54 234.27,223.94 233.10,226.76 C232.39,228.46 230.90,230.68 229.78,231.68 C227.78,233.46 227.75,233.45 228.43,231.25 C229.05,229.28 228.78,229.00 226.32,228.99 C224.77,228.99 220.46,228.70 216.75,228.35 C211.02,227.81 210.00,227.95 210.00,229.28 C210.00,231.86 216.34,239.38 219.98,241.11 C223.15,242.62 223.24,242.80 221.39,243.79 C218.52,245.33 214.83,243.24 206.24,235.23 C200.67,230.02 199.00,227.84 199.00,225.73 C199.00,224.23 198.55,223.00 198.00,223.00 C197.45,223.00 197.00,223.45 197.00,224.00 C197.00,224.55 195.76,225.01 194.25,225.02 C189.81,225.06 183.49,228.49 180.40,232.55 C177.98,235.72 177.47,237.45 177.16,243.49 C176.84,249.88 177.13,251.31 179.82,256.64 C181.48,259.93 183.55,263.21 184.42,263.93 C186.57,265.72 186.42,265.01 183.39,258.97 C178.21,248.66 178.88,241.07 185.54,234.41 C190.77,229.18 194.79,228.51 197.36,232.43 C198.24,233.77 200.31,235.66 201.98,236.65 C204.28,238.01 204.85,238.91 204.37,240.47 C204.03,241.58 203.59,242.68 203.38,242.91 C202.58,243.81 195.22,240.90 193.51,239.01 C191.49,236.78 190.00,236.41 190.00,238.13 C190.00,240.15 197.07,246.00 199.50,246.00 C202.12,246.00 205.33,248.65 204.45,250.08 C203.52,251.58 196.33,251.13 192.55,249.32 C188.77,247.52 186.96,248.05 188.90,250.38 C191.11,253.05 196.78,255.00 202.29,255.00 C206.30,255.00 207.94,255.41 208.37,256.53 C209.06,258.33 205.82,259.83 199.00,260.89 C194.71,261.55 194.61,261.64 196.80,262.86 C200.07,264.66 206.10,264.52 209.90,262.55 C212.44,261.24 213.46,261.13 214.57,262.06 C216.90,263.99 216.29,264.82 210.25,267.89 C204.84,270.64 204.65,270.85 207.11,271.48 C209.89,272.19 216.19,270.05 219.13,267.38 C220.47,266.17 221.28,266.08 222.92,266.96 C225.76,268.48 225.56,269.30 221.50,272.87 C219.57,274.56 218.00,276.18 218.00,276.47 C218.00,277.98 222.21,276.63 225.97,273.91 C229.47,271.37 230.83,270.93 233.62,271.46 C237.56,272.20 237.73,272.81 234.93,276.37 C232.10,279.96 234.71,279.96 238.98,276.36 L 242.11 273.73 L 249.81 275.53 C271.26,280.55 282.88,285.82 291.59,294.46 C299.67,302.48 302.38,309.27 301.78,320.02 C301.07,332.75 294.14,343.83 282.18,351.38 ZM 256.34 235.29 C255.98,254.43 255.41,270.23 255.09,270.40 C254.15,270.91 243.94,268.34 243.04,267.38 C242.60,266.89 241.71,241.98 241.06,212.00 C240.42,182.02 239.62,146.74 239.29,133.59 L 238.70 109.67 L 235.39 106.01 C231.23,101.41 230.00,98.18 230.00,91.89 C230.00,84.56 234.06,77.60 240.20,74.40 C243.68,72.59 254.32,72.59 257.80,74.40 C269.26,80.37 271.39,96.80 261.97,106.53 L 259.04 109.56 L 258.02 155.03 C257.47,180.04 256.71,216.16 256.34,235.29 ZM 269.60 407.17 C267.45,408.73 265.43,409.98 265.10,409.96 C264.77,409.94 263.04,408.67 261.25,407.14 C256.91,403.42 256.87,399.56 261.14,395.53 C270.09,387.08 268.40,376.41 257.00,369.41 C253.98,367.55 245.88,364.00 239.00,361.51 C221.18,355.08 214.45,351.44 207.44,344.46 C198.61,335.65 196.52,330.79 196.51,319.00 C196.50,310.59 196.81,308.93 199.19,304.50 C201.32,300.54 207.30,292.99 208.30,293.00 C208.41,293.00 213.84,294.35 220.36,296.00 C226.88,297.65 233.11,299.00 234.20,299.00 C235.71,299.00 234.62,300.51 229.72,305.25 C221.85,312.86 220.58,317.01 223.87,324.43 C224.98,326.94 225.50,329.00 225.03,329.00 C224.56,329.00 222.32,326.90 220.07,324.34 C215.62,319.29 212.50,310.87 213.23,305.90 C213.89,301.39 212.40,302.49 210.98,307.56 C207.49,320.05 217.44,334.53 234.14,341.23 C266.42,354.19 273.69,358.10 279.04,365.37 C289.00,378.89 285.16,395.89 269.60,407.17 ZM 291.90 279.96 C289.52,281.04 288.25,281.65 286.96,281.70 C285.37,281.77 283.75,281.00 280.02,279.24 C279.85,279.16 279.68,279.08 279.50,279.00 C276.20,277.44 270.46,275.20 266.75,274.01 C263.04,272.83 260.00,271.49 260.00,271.05 C260.00,270.60 262.36,269.48 265.25,268.55 C279.12,264.12 296.69,252.71 298.52,246.95 C299.59,243.57 300.83,244.84 300.01,248.47 C298.78,253.90 294.42,260.53 288.98,265.21 C286.24,267.57 284.00,269.82 284.00,270.22 C284.00,271.45 290.80,266.98 295.93,262.38 C307.66,251.82 309.57,235.23 299.75,229.15 C294.85,226.12 290.35,226.46 281.85,230.49 C274.81,233.83 265.65,236.32 264.53,235.20 C263.10,233.76 264.39,229.93 268.21,224.30 C273.89,215.92 280.03,213.00 291.94,213.00 C298.64,213.00 301.10,213.46 305.54,215.56 C316.21,220.61 321.62,230.49 320.78,243.38 C319.83,257.95 308.34,272.50 291.90,279.96 ZM 267.50 443.08 C263.96,448.11 261.33,449.55 262.39,445.88 C266.47,431.79 261.73,424.75 240.90,413.95 C221.79,404.04 214.00,394.95 214.00,382.55 C214.00,374.91 215.63,369.74 219.42,365.43 L 222.50 361.92 L 231.00 364.80 C240.47,368.01 241.71,369.64 237.17,372.88 C233.16,375.73 230.90,381.61 231.97,386.37 C233.23,391.95 237.22,396.41 247.12,403.27 C262.59,413.98 264.87,415.92 267.72,420.77 C270.01,424.66 270.50,426.68 270.50,432.16 C270.50,437.96 270.11,439.38 267.50,443.08 ZM 254.34 332.25 C253.63,342.98 253.36,343.30 247.39,340.32 C244.34,338.80 244.27,338.60 243.64,329.73 C243.29,324.76 243.00,316.26 243.00,310.85 C243.00,310.58 243.00,310.32 243.00,310.06 C243.00,304.58 243.00,302.12 244.12,301.39 C245.04,300.79 246.73,301.37 249.79,302.41 C249.96,302.47 250.14,302.53 250.32,302.59 L 255.00 304.19 L 254.99 313.34 C254.99,318.38 254.70,326.89 254.34,332.25 ZM 251.40 461.73 C250.80,466.61 249.79,467.65 247.86,465.34 C246.84,464.10 246.42,458.66 246.16,443.35 C245.97,432.16 246.13,423.00 246.51,423.00 C246.88,423.00 248.51,423.78 250.13,424.73 L 253.06 426.47 L 252.49 441.98 C252.17,450.52 251.68,459.40 251.40,461.73 ZM 253.32 388.52 C252.98,395.39 252.41,401.00 252.06,401.00 C251.71,401.00 250.00,399.76 248.27,398.25 L 245.11 395.50 L 244.80 382.75 C244.64,375.74 244.82,370.00 245.22,370.00 C246.92,370.00 252.96,373.45 253.43,374.69 C253.72,375.44 253.67,381.66 253.32,388.52 ZM 237.00 447.62 C237.00,450.18 230.45,443.33 228.84,439.08 C227.08,434.44 227.54,427.58 229.96,422.58 C232.63,417.06 233.94,416.32 238.02,418.01 C241.94,419.63 241.96,423.14 238.07,427.58 C234.28,431.89 233.22,438.20 235.41,443.45 C236.29,445.53 237.00,447.41 237.00,447.62 ZM 295.67 318.50 L 296.43 321.50 L 296.78 317.70 C297.59,308.86 290.36,297.23 280.43,291.41 C274.83,288.12 261.21,284.16 253.12,283.45 C244.94,282.74 246.63,284.04 257.00,286.43 C268.95,289.18 281.76,295.86 287.83,302.51 C290.75,305.70 293.37,309.70 293.93,311.80 C294.47,313.84 295.25,316.85 295.67,318.50 ZM 226.53 398.33 C231.20,402.87 233.55,403.22 229.31,398.75 C222.37,391.44 220.66,381.47 224.92,373.15 C227.44,368.22 227.02,366.78 223.87,369.59 C216.46,376.19 217.72,389.78 226.53,398.33 ZM 232.00 244.50 C233.01,245.71 232.97,246.00 231.81,246.00 C231.03,246.00 228.24,243.52 225.63,240.50 C223.02,237.48 221.25,235.01 221.69,235.02 C222.14,235.03 224.75,236.37 227.50,238.00 C230.25,239.63 233.31,240.97 234.31,240.98 C235.30,240.99 235.84,241.45 235.50,242.00 C235.16,242.55 233.95,243.00 232.82,243.00 C231.10,243.00 230.96,243.25 232.00,244.50 ZM 281.00 219.65 C281.00,219.98 282.46,219.88 284.25,219.43 C286.04,218.97 290.42,218.49 294.00,218.35 C297.58,218.21 300.73,218.07 301.00,218.04 C301.27,218.00 300.83,217.53 300.00,217.00 C296.39,214.67 281.00,216.82 281.00,219.65 ZM 212.81 219.00 C215.13,221.64 220.00,223.21 220.00,221.31 C220.00,219.48 215.37,216.00 212.92,216.00 L 210.18 216.00 Z" fill="rgb(2,2,2)"/>
<path d="M 0.00 0.00 L 499.00 0.00 L 499.00 0.05 L 249.51 0.05 L 0.02 0.05 L 0.02 249.53 L 0.02 499.00 L 0.00 499.00 ZM 295.67 318.50 C295.25,316.85 294.47,313.84 293.93,311.80 C293.67,310.82 292.96,309.43 291.98,307.89 C293.04,309.53 293.83,311.04 294.15,312.12 C295.04,315.09 295.57,315.74 296.19,314.63 C296.57,313.95 296.42,312.33 295.81,310.19 C296.64,312.78 296.99,315.34 296.78,317.70 L 296.43 321.50 ZM 290.95 300.95 C288.78,298.18 286.08,295.47 283.35,293.34 C286.25,295.48 288.84,298.11 290.95,300.95 ZM 265.86 285.94 C261.21,284.71 256.47,283.74 253.12,283.45 C256.68,283.76 261.31,284.70 265.86,285.94 Z" fill="rgb(162,162,162)"/>
<path d="M 0.02 249.53 L 0.02 0.05 L 249.51 0.05 L 499.00 0.05 L 499.00 249.53 L 499.00 499.00 L 249.51 499.00 L 0.02 499.00 L 0.02 249.53 ZM 251.40 461.73 C251.68,459.40 252.17,450.52 252.49,441.98 L 253.06 426.47 L 250.13 424.73 C248.51,423.78 246.88,423.00 246.51,423.00 C246.13,423.00 245.97,432.16 246.16,443.35 C246.42,458.66 246.84,464.10 247.86,465.34 C249.79,467.65 250.80,466.61 251.40,461.73 ZM 237.00 447.62 C237.00,447.41 236.29,445.53 235.41,443.45 C233.22,438.20 234.28,431.89 238.07,427.58 C241.96,423.14 241.94,419.63 238.02,418.01 C233.94,416.32 232.63,417.06 229.96,422.58 C227.54,427.58 227.08,434.44 228.84,439.08 C230.45,443.33 237.00,450.18 237.00,447.62 ZM 267.50 443.08 C270.11,439.38 270.50,437.96 270.50,432.16 C270.50,426.68 270.01,424.66 267.72,420.77 C264.87,415.92 262.59,413.98 247.12,403.27 C237.22,396.41 233.23,391.95 231.97,386.37 C230.90,381.61 233.16,375.73 237.17,372.88 C241.71,369.64 240.47,368.01 231.00,364.80 L 222.50 361.92 L 219.42 365.43 C215.63,369.74 214.00,374.91 214.00,382.55 C214.00,394.95 221.79,404.04 240.90,413.95 C261.73,424.75 266.47,431.79 262.39,445.88 C261.33,449.55 263.96,448.11 267.50,443.08 ZM 269.60 407.17 C285.16,395.89 289.00,378.89 279.04,365.37 C273.69,358.10 266.42,354.19 234.14,341.23 C217.44,334.53 207.49,320.05 210.98,307.56 C212.40,302.49 213.89,301.39 213.23,305.90 C212.50,310.87 215.62,319.29 220.07,324.34 C222.32,326.90 224.56,329.00 225.03,329.00 C225.50,329.00 224.98,326.94 223.87,324.43 C220.58,317.01 221.85,312.86 229.72,305.25 C234.62,300.51 235.71,299.00 234.20,299.00 C233.11,299.00 226.88,297.65 220.36,296.00 C213.84,294.35 208.41,293.00 208.30,293.00 C207.30,292.99 201.32,300.54 199.19,304.50 C196.81,308.93 196.50,310.59 196.51,319.00 C196.52,330.79 198.61,335.65 207.44,344.46 C214.45,351.44 221.18,355.08 239.00,361.51 C245.88,364.00 253.98,367.55 257.00,369.41 C268.40,376.41 270.09,387.08 261.14,395.53 C256.87,399.56 256.91,403.42 261.25,407.14 C263.04,408.67 264.77,409.94 265.10,409.96 C265.43,409.98 267.45,408.73 269.60,407.17 ZM 253.32 388.52 C253.67,381.66 253.72,375.44 253.43,374.69 C252.96,373.45 246.92,370.00 245.22,370.00 C244.82,370.00 244.64,375.74 244.80,382.75 L 245.11 395.50 L 248.27 398.25 C250.00,399.76 251.71,401.00 252.06,401.00 C252.41,401.00 252.98,395.39 253.32,388.52 ZM 118.57 355.44 C135.37,351.06 147.30,338.43 150.89,321.20 C151.62,317.73 152.00,298.15 152.00,264.45 L 152.00 213.00 L 137.04 213.00 L 122.09 213.00 L 121.79 263.25 L 121.50 313.50 L 118.50 319.50 C115.92,324.67 114.74,325.89 110.00,328.34 C105.00,330.91 103.80,331.13 96.85,330.69 C89.07,330.19 82.11,327.59 76.26,322.99 C74.87,321.89 73.23,321.00 72.61,321.00 C71.50,321.00 68.80,325.02 62.31,336.40 L 58.94 342.30 L 61.21 344.72 C64.95,348.70 78.72,354.86 87.50,356.47 C96.72,358.17 109.75,357.74 118.57,355.44 ZM 407.46 355.01 C422.52,351.16 433.44,342.67 439.27,330.27 C442.24,323.96 442.46,322.76 442.48,312.50 C442.50,302.71 442.21,300.90 439.90,296.00 C435.27,286.19 426.66,279.17 413.30,274.32 C409.76,273.04 399.58,270.17 390.68,267.95 C365.67,261.72 361.00,258.80 361.00,249.42 C361.00,237.83 383.02,232.77 403.19,239.73 C407.76,241.30 414.38,244.51 417.90,246.85 C421.42,249.19 424.62,250.74 425.02,250.30 C428.93,245.95 439.94,229.70 439.47,228.96 C438.34,227.13 427.20,220.06 421.35,217.47 C406.96,211.08 383.75,208.99 367.71,212.63 C342.19,218.44 326.97,237.98 330.84,259.96 C332.32,268.37 334.59,272.69 340.72,278.72 C348.23,286.11 357.42,290.18 378.63,295.52 C407.23,302.72 412.00,305.46 412.00,314.67 C412.00,322.76 406.99,327.88 396.33,330.68 C389.82,332.39 382.68,332.01 372.04,329.36 C363.88,327.34 358.43,324.61 349.52,318.10 C345.68,315.29 342.08,313.02 341.52,313.04 C340.96,313.06 337.17,317.87 333.10,323.72 L 325.69 334.37 L 329.60 337.76 C341.78,348.35 356.31,354.57 375.50,357.39 C381.59,358.29 400.00,356.92 407.46,355.01 ZM 282.18 351.38 C294.14,343.83 301.07,332.75 301.78,320.02 C302.38,309.27 299.67,302.48 291.59,294.46 C282.88,285.82 271.26,280.55 249.81,275.53 L 242.11 273.73 L 238.98 276.36 C234.71,279.96 232.10,279.96 234.93,276.37 C237.73,272.81 237.56,272.20 233.62,271.46 C230.83,270.93 229.47,271.37 225.97,273.91 C222.21,276.63 218.00,277.98 218.00,276.47 C218.00,276.18 219.57,274.56 221.50,272.87 C225.56,269.30 225.76,268.48 222.92,266.96 C221.28,266.08 220.47,266.17 219.13,267.38 C216.19,270.05 209.89,272.19 207.11,271.48 C204.65,270.85 204.84,270.64 210.25,267.89 C216.29,264.82 216.90,263.99 214.57,262.06 C213.46,261.13 212.44,261.24 209.90,262.55 C206.10,264.52 200.07,264.66 196.80,262.86 C194.61,261.64 194.71,261.55 199.00,260.89 C205.82,259.83 209.06,258.33 208.37,256.53 C207.94,255.41 206.30,255.00 202.29,255.00 C196.78,255.00 191.11,253.05 188.90,250.38 C186.96,248.05 188.77,247.52 192.55,249.32 C196.33,251.13 203.52,251.58 204.45,250.08 C205.33,248.65 202.12,246.00 199.50,246.00 C197.07,246.00 190.00,240.15 190.00,238.13 C190.00,236.41 191.49,236.78 193.51,239.01 C195.22,240.90 202.58,243.81 203.38,242.91 C203.59,242.68 204.03,241.58 204.37,240.47 C204.85,238.91 204.28,238.01 201.98,236.65 C200.31,235.66 198.24,233.77 197.36,232.43 C194.79,228.51 190.77,229.18 185.54,234.41 C178.88,241.07 178.21,248.66 183.39,258.97 C186.42,265.01 186.57,265.72 184.42,263.93 C183.55,263.21 181.48,259.93 179.82,256.64 C177.13,251.31 176.84,249.88 177.16,243.49 C177.47,237.45 177.98,235.72 180.40,232.55 C183.49,228.49 189.81,225.06 194.25,225.02 C195.76,225.01 197.00,224.55 197.00,224.00 C197.00,223.45 197.45,223.00 198.00,223.00 C198.55,223.00 199.00,224.23 199.00,225.73 C199.00,227.84 200.67,230.02 206.24,235.23 C214.83,243.24 218.52,245.33 221.39,243.79 C223.24,242.80 223.15,242.62 219.98,241.11 C216.34,239.38 210.00,231.86 210.00,229.28 C210.00,227.95 211.02,227.81 216.75,228.35 C220.46,228.70 224.77,228.99 226.32,228.99 C228.78,229.00 229.05,229.28 228.43,231.25 C227.75,233.45 227.78,233.46 229.78,231.68 C230.90,230.68 232.39,228.46 233.10,226.76 C234.27,223.94 234.18,223.54 232.13,222.09 C230.90,221.21 227.86,218.82 225.39,216.76 C218.10,210.69 217.50,210.51 204.50,210.50 C193.16,210.50 192.17,210.67 186.50,213.50 C168.63,222.43 162.60,240.16 171.13,258.64 C172.38,261.34 176.30,266.40 179.94,270.01 C190.73,280.71 204.41,286.49 233.35,292.57 C256.95,297.53 267.43,301.64 274.49,308.69 C281.36,315.54 283.54,323.93 280.91,333.38 C279.77,337.48 272.66,346.00 271.42,344.75 C271.01,344.34 271.41,343.21 272.30,342.22 C276.57,337.50 278.30,327.31 275.85,321.32 L 274.70 318.50 L 273.88 322.88 C272.83,328.47 271.25,330.82 265.04,336.07 C258.36,341.70 258.16,344.74 264.31,347.27 C266.67,348.24 270.16,350.13 272.06,351.47 C276.43,354.56 277.16,354.56 282.18,351.38 ZM 254.34 332.25 C254.70,326.89 254.99,318.38 254.99,313.34 L 255.00 304.19 L 250.32 302.59 C242.81,300.04 243.00,299.82 243.00,310.85 C243.00,316.26 243.29,324.76 243.64,329.73 C244.27,338.60 244.34,338.80 247.39,340.32 C253.36,343.30 253.63,342.98 254.34,332.25 ZM 291.90 279.96 C308.34,272.50 319.83,257.95 320.78,243.38 C321.62,230.49 316.21,220.61 305.54,215.56 C301.10,213.46 298.64,213.00 291.94,213.00 C280.03,213.00 273.89,215.92 268.21,224.30 C264.39,229.93 263.10,233.76 264.53,235.20 C265.65,236.32 274.81,233.83 281.85,230.49 C290.35,226.46 294.85,226.12 299.75,229.15 C309.57,235.23 307.66,251.82 295.93,262.38 C290.80,266.98 284.00,271.45 284.00,270.22 C284.00,269.82 286.24,267.57 288.98,265.21 C294.42,260.53 298.78,253.90 300.01,248.47 C300.83,244.84 299.59,243.57 298.52,246.95 C296.69,252.71 279.12,264.12 265.25,268.55 C262.36,269.48 260.00,270.60 260.00,271.05 C260.00,271.49 263.04,272.83 266.75,274.01 C270.46,275.20 276.20,277.44 279.50,279.00 C286.80,282.44 286.48,282.42 291.90,279.96 ZM 256.34 235.29 C256.71,216.16 257.47,180.04 258.02,155.03 L 259.04 109.56 L 261.97 106.53 C271.39,96.80 269.26,80.37 257.80,74.40 C254.32,72.59 243.68,72.59 240.20,74.40 C234.06,77.60 230.00,84.56 230.00,91.89 C230.00,98.18 231.23,101.41 235.39,106.01 L 238.70 109.67 L 239.29 133.59 C239.62,146.74 240.42,182.02 241.06,212.00 C241.71,241.98 242.60,266.89 243.04,267.38 C243.94,268.34 254.15,270.91 255.09,270.40 C255.41,270.23 255.98,254.43 256.34,235.29 ZM 232.00 244.50 C230.96,243.25 231.10,243.00 232.82,243.00 C233.95,243.00 235.16,242.55 235.50,242.00 C235.84,241.45 235.30,240.99 234.31,240.98 C233.31,240.97 230.25,239.63 227.50,238.00 C224.75,236.37 222.14,235.03 221.69,235.02 C221.25,235.01 223.02,237.48 225.63,240.50 C228.24,243.52 231.03,246.00 231.81,246.00 C232.97,246.00 233.01,245.71 232.00,244.50 ZM 233.65 189.25 C233.31,183.89 232.74,167.94 232.38,153.81 L 231.73 128.13 L 226.87 125.11 C223.53,123.03 220.80,120.14 218.09,115.80 C212.30,106.50 208.04,101.93 203.00,99.59 C198.60,97.55 197.04,97.49 132.33,97.22 L 66.16 96.93 L 67.46 101.87 C69.73,110.46 76.09,118.03 84.70,122.38 C92.42,126.29 98.82,126.99 135.95,128.05 C156.01,128.63 172.64,129.31 172.90,129.56 C175.05,131.71 157.17,133.45 110.25,135.64 C94.42,136.38 94.35,136.43 98.36,142.77 C103.77,151.33 112.10,157.23 121.06,158.85 C127.36,160.00 138.94,158.81 162.97,154.56 C170.94,153.15 178.29,152.00 179.31,152.00 C182.62,152.00 180.53,154.25 175.95,155.62 C165.21,158.82 146.80,163.99 138.78,166.05 L 130.07 168.29 L 131.94 170.89 C137.18,178.21 145.20,182.25 154.43,182.24 C159.02,182.24 164.29,180.99 176.08,177.12 C184.64,174.30 192.18,172.00 192.83,172.00 C196.50,172.00 192.28,174.84 178.37,181.71 L 162.73 189.43 L 166.81 193.06 C169.06,195.05 172.38,197.16 174.20,197.74 C176.16,198.37 188.98,198.84 205.88,198.90 L 234.26 199.00 L 233.65 189.25 ZM 328.50 197.11 C332.30,195.35 337.82,190.45 336.92,189.62 C336.69,189.40 329.64,185.80 321.25,181.61 C307.27,174.62 303.52,172.00 307.51,172.00 C308.34,172.00 314.18,173.78 320.50,175.96 C347.32,185.21 356.94,184.56 367.57,172.79 C369.65,170.49 370.93,168.49 370.42,168.33 C369.91,168.18 366.80,167.35 363.50,166.48 C360.20,165.62 351.42,163.31 344.00,161.36 C336.58,159.41 327.61,157.05 324.07,156.13 C317.43,154.39 314.74,152.00 319.43,152.00 C320.85,152.00 328.88,153.16 337.26,154.59 C368.49,159.89 381.38,160.46 388.38,156.83 C395.13,153.34 405.00,142.17 405.00,138.03 C405.00,136.31 403.52,136.19 344.14,132.97 C334.04,132.43 325.34,131.71 324.80,131.38 C321.66,129.43 328.06,128.74 352.66,128.36 C390.55,127.78 406.25,126.63 413.54,123.90 C423.71,120.09 431.81,110.70 434.40,99.72 L 435.05 96.93 L 367.28 97.22 L 299.50 97.50 L 293.77 100.31 C287.94,103.18 287.28,103.91 278.74,117.00 C275.68,121.69 273.35,124.06 270.36,125.50 L 266.23 127.50 L 265.62 141.50 C265.29,149.20 264.74,165.29 264.40,177.25 L 263.78 199.00 L 294.14 198.98 C321.52,198.96 324.89,198.77 328.50,197.11 ZM 226.53 398.33 C217.72,389.78 216.46,376.19 223.87,369.59 C227.02,366.78 227.44,368.22 224.92,373.15 C220.66,381.47 222.37,391.44 229.31,398.75 C233.55,403.22 231.20,402.87 226.53,398.33 ZM 294.15 312.12 C293.48,309.86 290.72,305.66 287.83,302.51 C281.76,295.86 268.95,289.18 257.00,286.43 C246.63,284.04 244.94,282.74 253.12,283.45 C260.23,284.07 273.66,287.74 279.07,290.54 C285.29,293.75 292.80,301.85 294.98,307.69 C296.24,311.06 296.70,313.71 296.19,314.63 C295.57,315.74 295.04,315.09 294.15,312.12 ZM 212.81 219.00 L 210.18 216.00 L 212.92 216.00 C215.37,216.00 220.00,219.48 220.00,221.31 C220.00,223.21 215.13,221.64 212.81,219.00 ZM 281.00 219.65 C281.00,216.82 296.39,214.67 300.00,217.00 C300.83,217.53 301.27,218.00 301.00,218.04 C300.73,218.07 297.58,218.21 294.00,218.35 C290.42,218.49 286.04,218.97 284.25,219.43 C282.46,219.88 281.00,219.98 281.00,219.65 Z" fill="rgb(254,254,254)"/>
</g>
</svg>